# xmcd
#
# Track frame offsets: 
#        150
#        1958
#        20795
#        38663
#        57013
#        76568
#        95996
#        115164
#        133913
#        151156
#        170094
#        190956
#
# Disc length: 2697 seconds
#
# Revision: 0
# Processed by: cddbd v1.5.2PL0 Copyright (c) Steve Scherf et al.
# Submitted via: ExactAudioCopyFreeDBPlugin 1.0
#
DISCID=950a870c
DTITLE=Various Artist - ลูกทุ่ง ไฮ-ไฟ
DYEAR=1900
DGENRE=
TTITLE0=โฆษก
TTITLE1=เสียงครวญของหนุ่มไทย
TTITLE2=หาแฟนขับ
TTITLE3=เจ้าทึ่ม
TTITLE4=เอาใหม่
TTITLE5=ข้าเหนื่อย
TTITLE6=พี่น้อง
TTITLE7=เปิดเพลงเมื่อไหร่
TTITLE8=ตบยุง
TTITLE9=รอจดหมาย
TTITLE10=ขออวย
TTITLE11=ข้าเหนื่อย - บรรเลง
EXTD=
EXTT0=
EXTT1=
EXTT2=
EXTT3=
EXTT4=
EXTT5=
EXTT6=
EXTT7=
EXTT8=
EXTT9=
EXTT10=
EXTT11=
PLAYORDER=
